<svg xmlns="http://www.w3.org/2000/svg" viewBox="0 0 360 48" fill="none">
  <!-- Location pin with single heart, aligned to text top -->
  <g transform="translate(0, 5)">
    <!-- Pin body -->
    <path d="M14 15C14 8 18.5 2 24.5 2C30.5 2 35 8 35 15C35 24 24.5 42 24.5 42C24.5 42 14 24 14 15Z" fill="#E11D48"/>
    <!-- Single centered heart inside pin (white) -->
    <path d="M24.5 11C23.4 8.5 21 7.6 19.2 9.4C17.4 7.6 15 8.5 13.9 11C13.9 14 19.2 18.5 19.2 18.5C19.2 18.5 24.5 14 24.5 11Z" fill="white" transform="translate(5.3, 0)"/>
  </g>

  <!-- Text -->
  <text x="48" y="22" font-family="system-ui, -apple-system, 'Segoe UI', sans-serif" font-size="20" font-weight="700" fill="#111827" letter-spacing="-0.5">wochenend</text>
  <text x="48" y="42" font-family="system-ui, -apple-system, 'Segoe UI', sans-serif" font-size="20" font-weight="700" fill="#111827" letter-spacing="-0.5">beziehungen<tspan fill="#E11D48" font-weight="400">.de</tspan></text>
</svg>